<?xml version="1.0" encoding="utf-8"?>
<!-- Generator: Adobe Illustrator 24.3.0, SVG Export Plug-In . SVG Version: 6.00 Build 0)  -->
<svg version="1.1" id="Layer_1" xmlns="http://www.w3.org/2000/svg" xmlns:xlink="http://www.w3.org/1999/xlink" x="0px" y="0px"
	 viewBox="0 0 240 190" style="enable-background:new 0 0 240 190;" xml:space="preserve">
<style type="text/css">
	.st0{opacity:0.68;}
	.st1{fill:#FFFFFF;}
	.st2{fill:#2C14CC;}
	.st3{fill:#FF4400;}
</style>
<g class="st0">
	<path class="st1" d="M61.8,33.1c1.2,0,2.4-0.1,3.6,0c0.4,0,0.7,0.3,1,0.5c5.9,3.9,12.4,6.2,19.6,5.8c10.2-0.5,18.8-4.7,26-11.9
		c3.5-3.6,6.2-7.7,8.2-12.5c0.1,0.2,0.2,0.3,0.3,0.5c6.2,13.7,16.8,21.7,31.6,23.8c7.8,1.1,14.9-1.1,21.4-5.5
		c0.7-0.5,1.3-0.7,2.1-0.6c0.8,0.1,1.5,0,2.3,0c0.1,0,0.1,0,0.3,0.1c0,0.3,0,0.6,0,0.9c0,33.7,0,67.3,0,101c0,1.5-0.5,3-1.1,4.4
		c-2.1,5.1-5.9,8.7-10.7,11.5c-4.9,2.8-10.3,4.4-15.8,5.3c-4.4,0.7-8.8,1.5-13,3.1c-6.6,2.4-11.6,6.7-15.3,12.6c-0.6,1-1.3,2-2,3.1
		c-0.2-0.3-0.4-0.6-0.6-0.9c-2.5-3.9-5.1-7.7-8.9-10.5c-4.4-3.3-9.3-5.1-14.6-6.2c-4-0.8-8.1-1.4-12.1-2.4c-6.1-1.5-11.7-4-16.1-8.6
		c-3.3-3.3-5.3-7.3-5.9-11.9c0-0.1-0.1-0.3-0.1-0.4C61.8,100.4,61.8,66.7,61.8,33.1z M65.3,36.9c0,0.6,0,0.9,0,1.3
		c0,31,0,61.9,0,92.9c0,5.7,2.2,10.2,6.5,13.9c4.2,3.6,9.2,5.5,14.5,6.7c4.1,0.9,8.2,1.5,12.3,2.4c6.3,1.4,12.1,4,16.7,8.6
		c1.8,1.7,3.3,3.6,4.9,5.4c1.2-1.5,2.5-3.1,4-4.6c5.1-5.2,11.4-8,18.3-9.5c3.6-0.8,7.2-1.3,10.7-2c5.1-1.1,10-2.9,14.2-6.1
		c4.6-3.5,7.5-8.1,7.5-14.1c0.1-31.2,0-62.5,0-93.7c0-0.3,0-0.6,0-1c-0.3,0.2-0.4,0.2-0.6,0.3c-7,4.5-14.6,6.4-22.8,5.4
		c-12.2-1.6-22.1-7.3-29.6-17c-0.7-0.9-1.3-1.9-2-2.8c-0.1,0.1-0.2,0.2-0.2,0.3c-5,7.9-12,13.4-20.6,16.8c-7,2.8-14.3,3.8-21.8,2.1
		C73.1,41.1,69.1,39.4,65.3,36.9z"/>
	<path class="st2" d="M65.3,36.9c3.8,2.5,7.8,4.2,12.1,5.2c7.5,1.7,14.7,0.7,21.8-2.1c8.6-3.5,15.6-8.9,20.6-16.8
		c0-0.1,0.1-0.1,0.2-0.3c0.7,1,1.3,1.9,2,2.8c7.5,9.7,17.4,15.5,29.6,17c8.2,1,15.8-0.9,22.8-5.4c0.1-0.1,0.3-0.2,0.6-0.3
		c0,0.4,0,0.7,0,1c0,31.2,0,62.5,0,93.7c0,6-2.9,10.6-7.5,14.1c-4.2,3.2-9.1,5-14.2,6.1c-3.6,0.8-7.2,1.2-10.7,2
		c-6.9,1.6-13.3,4.4-18.3,9.5c-1.5,1.5-2.7,3.2-4,4.6c-1.6-1.8-3.1-3.7-4.9-5.4c-4.7-4.6-10.5-7.1-16.7-8.6
		c-4.1-0.9-8.2-1.5-12.3-2.4c-5.3-1.2-10.3-3.1-14.5-6.7c-4.3-3.6-6.5-8.2-6.5-13.9c0.1-31,0-61.9,0-92.9
		C65.3,37.8,65.3,37.5,65.3,36.9z M120.2,158.9c0.8-0.7,1.6-1.6,2.5-2.3c5.7-4.6,12.4-7.3,19.5-8.9c3.9-0.9,7.8-1.5,11.7-2.4
		c4-1,7.7-2.6,10.8-5.3c2.5-2.2,3.8-4.9,3.8-8.4c-0.1-16,0-32,0-48c0-0.4,0-0.8,0-1.2c-32.3,0-64.5,0-96.7,0c0,0.5,0,0.9,0,1.3
		c0,15.9,0,31.7,0,47.6c0,3.5,1.3,6.2,3.8,8.5c2.7,2.4,5.8,4,9.3,4.9c4.1,1.1,8.3,1.8,12.5,2.8c6.8,1.5,13.2,3.9,18.8,8
		C117.5,156.6,118.8,157.8,120.2,158.9z M107.6,75.8c0.8-5.7,2.4-11.2,4.8-16.4c-0.8-0.2-1.4-0.4-2.1-0.6c0.3-0.5,0.5-1,0.7-1.5
		c2.5,0.4,5.3,1.7,6.4,3c-0.3,0.4-0.6,0.9-0.8,1.4c-0.7-0.5-1.4-0.9-2-1.3c-0.1,0.2-0.2,0.2-0.3,0.3c-2.7,4.7-4.6,9.8-5.9,15
		c-0.2,0.8,0.1,1,0.8,0.9c2-0.4,4-0.7,6-1.2c5.4-1.4,10.3-3.9,14-8.2c3.6-4.2,5.3-9.1,5.5-14.5c0.2-3.6-0.4-7.1-1.8-10.5
		c-0.4-1-0.7-1.1-1.6-0.5c-0.5,0.3-1,0.7-1.5,1.1c-1.1,0.9-2.2,1.8-3.3,2.8c0.7,0.5,1.3,0.9,2,1.4c-0.5,0.4-0.9,0.8-1.2,1.1
		c-2-1-3.8-2-5.7-2.9c0.7-0.7,1.5-1.2,2.7-0.6c0.2,0.1,0.7-0.1,1-0.2c1.7-1,3.3-2,4.9-2.9c0.3-0.2,0.6-0.3,1-0.5
		c-5.3-1.7-16.3,3.1-21.1,9.1C103.9,57.8,104.6,69.6,107.6,75.8z M77,46.7c-0.5,1.5-1,2.8-1.4,4.1c-0.2,0.8-0.6,1.1-1.5,1
		c-1.3-0.1-2.6,0-4,0c0,0.1,0,0.2-0.1,0.2c1.4,1,2.7,2.1,4.1,3.1c-0.5,1.7-1,3.3-1.5,4.9c1.3-0.7,2.5-1.5,3.6-2.3
		c0.5-0.4,0.9-0.4,1.4,0c1.1,0.9,2.3,1.6,3.7,2.6c-0.5-1.7-0.9-3-1.4-4.4c-0.2-0.6-0.1-0.9,0.4-1.3c1.2-0.8,2.3-1.8,3.5-2.6
		c-1.5-0.2-2.9-0.2-4.3-0.2c-0.6,0-0.9-0.2-1.1-0.8C78.1,49.6,77.6,48.3,77,46.7z M102.9,52c0-0.1-0.1-0.2-0.1-0.2
		c-1.1,0-2.2,0-3.3,0c-2.2,0-1.6,0.3-2.3-1.6c-0.4-1.1-0.8-2.1-1.2-3.5c-0.4,1.2-0.8,2.1-1.1,3c-0.7,2-0.7,2-2.9,2c-1,0-1.9,0-2.9,0
		c0.8,0.9,1.7,1.6,2.6,2.2c1.4,1.1,1.4,1.1,0.9,2.8c-0.3,1.1-0.7,2.2-1,3.2c1.2-0.6,2.2-1.2,3.1-2c0.8-0.7,1.5-0.8,2.3,0
		c0.9,0.8,2,1.4,3.2,2.3c-0.5-1.6-0.9-3-1.4-4.4c-0.2-0.6-0.1-0.9,0.4-1.3C100.6,53.8,101.7,52.9,102.9,52z M163.3,74.2
		c1.4,1,2.8,1.9,4.4,3c-0.6-1.9-1.1-3.5-1.6-5.2c1.4-1.1,2.8-2.1,4.1-3.1c0-0.1-0.1-0.1-0.1-0.2c-1.3,0-2.6-0.1-4,0
		c-0.8,0-1.2-0.2-1.5-1c-0.4-1.3-0.9-2.6-1.4-4.1c-0.6,1.6-1.1,2.9-1.5,4.3c-0.2,0.6-0.5,0.8-1.2,0.8c-1.4,0-2.8,0-4.2,0
		c1,1,2.1,1.9,3.2,2.6c0.8,0.5,0.9,1,0.6,1.9c-0.5,1.2-0.8,2.5-1.2,3.8c0.1,0,0.1,0.1,0.2,0.1C160.5,76.2,161.8,75.2,163.3,74.2z
		 M137.4,68.7c0,0.1-0.1,0.1-0.1,0.2c1.1,0.8,2.2,1.7,3.3,2.5c0.7,0.5,0.8,0.9,0.5,1.7c-0.5,1.3-0.8,2.6-1.3,4.1
		c1.6-1.1,3-2.1,4.4-3.1c1.4,1,2.8,1.9,4.4,3c-0.4-1.3-0.7-2.4-1.1-3.5c-0.5-1.7-0.5-1.7,0.9-2.8c0.9-0.7,1.8-1.4,2.7-2
		c0-0.1-0.1-0.1-0.1-0.2c-1.4,0-2.9,0-4.3,0c-0.5,0-0.8-0.2-1-0.7c-0.4-1.4-1-2.8-1.5-4.4c-0.7,1.8-1.2,3.5-1.8,5.1
		C140.7,68.7,139,68.7,137.4,68.7z M142.4,51.7c-1.7,0-3.4,0-5.3,0c1.3,1,2.4,1.8,3.5,2.6c0.7,0.5,0.9,0.9,0.6,1.8
		c-0.5,1.3-0.8,2.6-1.3,4.1c1.6-1.1,3-2.1,4.4-3.1c1.4,1,2.8,1.9,4.4,3.1c-0.3-1-0.6-1.8-0.8-2.6c-0.2-0.8-0.8-1.8-0.6-2.5
		c0.2-0.7,1.3-1.1,2-1.7c0.7-0.5,1.4-1,2-1.5c0-0.1-0.1-0.1-0.1-0.2c-1.7,0-3.4,0-5.1,0c-0.6-1.7-1.1-3.3-1.8-5.1
		C143.6,48.4,143,50,142.4,51.7z M170.2,51.9c0-0.1,0-0.2-0.1-0.2c-1.4,0-2.7,0-4.1,0c-0.7,0-1.1-0.2-1.3-0.9
		c-0.4-1.3-0.9-2.6-1.5-4.2c-0.5,1.3-0.8,2.4-1.2,3.4c-0.6,1.7-0.6,1.7-2.4,1.7c-1.1,0-2.2,0-3.3,0c1,1,2,1.9,3.1,2.5
		c0.9,0.6,1,1.1,0.6,2.1c-0.5,1.2-0.8,2.4-1.2,3.7c1.3-0.7,2.5-1.5,3.6-2.4c0.5-0.4,0.8-0.4,1.3,0c1.1,0.9,2.3,1.6,3.5,2.5
		c-0.3-1.5-0.7-2.9-1.1-4.2c-0.2-0.6-0.1-0.9,0.4-1.3C167.9,53.7,169,52.8,170.2,51.9z M91.7,77c0.1,0,0.1,0.1,0.2,0.1
		c1.1-0.8,2.3-1.6,3.4-2.4c0.5-0.4,0.9-0.4,1.4,0c1.1,0.9,2.3,1.6,3.5,2.4c-0.3-1.5-0.6-2.9-1.1-4.2c-0.3-0.7-0.1-1,0.5-1.4
		c1.2-0.8,2.3-1.7,3.4-2.6c-1.5-0.2-2.9-0.2-4.3-0.2c-0.6,0-0.9-0.2-1.1-0.8c-0.4-1.4-0.9-2.7-1.4-4.1c-0.6,1.1-1,2.3-1.4,3.4
		c-0.6,1.8-0.2,1.4-2,1.4c-1.2,0-2.4,0-3.6,0c1.1,1,2.1,1.9,3.3,2.7c0.6,0.4,0.8,0.8,0.5,1.6C92.4,74.4,92.1,75.7,91.7,77z
		 M81.4,77.4c-0.5-1.6-0.9-3-1.4-4.3c-0.3-0.7-0.1-1.1,0.5-1.5c1.2-0.8,2.3-1.7,3.4-2.5c-1.3-0.2-2.6-0.3-3.8-0.2
		c-1,0.1-1.5-0.2-1.7-1.2c-0.3-1.3-0.8-2.5-1.4-3.9c-0.3,0.9-0.6,1.7-0.8,2.4c-0.3,0.9-0.4,2.1-1,2.6c-0.7,0.5-1.9,0.2-2.8,0.2
		c-0.7,0-1.5,0-2.2,0c0,0.1,0,0.1,0,0.2c1.4,1,2.7,2,4.1,3.1c-0.5,1.7-1,3.3-1.5,5c1.2-0.6,2.4-1.4,3.4-2.2c0.7-0.6,1.2-0.5,1.9,0
		C79,75.7,80.1,76.5,81.4,77.4z"/>
	<path class="st1" d="M120.2,158.9c-1.4-1.2-2.7-2.4-4.1-3.4c-5.6-4.1-12-6.5-18.8-8c-4.2-0.9-8.4-1.7-12.5-2.8
		c-3.4-0.9-6.6-2.5-9.3-4.9c-2.5-2.3-3.8-5-3.8-8.5c0.1-15.9,0-31.7,0-47.6c0-0.4,0-0.8,0-1.3c32.3,0,64.5,0,96.7,0
		c0,0.4,0,0.8,0,1.2c0,16,0,32,0,48c0,3.5-1.3,6.2-3.8,8.4c-3.1,2.8-6.9,4.4-10.8,5.3c-3.9,0.9-7.8,1.5-11.7,2.4
		c-7.1,1.6-13.7,4.3-19.5,8.9C121.8,157.4,121,158.2,120.2,158.9z M105.2,143.6c0-0.5,0-0.9,0-1.2c0-14.2,0-28.3,0-42.5
		c0-1.3,0-2.7,0-4c0-0.3,0.2-0.8,0.5-0.9c2.2-0.7,2.7-2.3,2.4-4.4c-0.1-0.8,0-1.6,0-2.4c0-0.2-0.1-0.5-0.1-0.7c-4.5,0-9,0-13.5,0
		c0,1.2,0.1,2.4,0,3.5c-0.3,1.9,0.3,3.1,2.2,3.7c0.7,0.2,0.9,0.7,0.9,1.5c0,7.1,0,14.3,0,21.4c0,0.2,0,0.5-0.1,0.7
		c-0.2-0.3-0.4-0.5-0.4-0.8c-3.2-9.8-6.4-19.5-9.5-29.3c-0.2-0.8-0.6-1-1.3-0.9c-3,0-6,0-8.9,0c-0.3,0-0.6,0-1,0c0,1.2,0,2.2,0,3.3
		c0,0.9-0.3,2.1,0.1,2.8c0.4,0.7,1.5,1,2.4,1.3c0.7,0.3,0.9,0.7,0.9,1.4c0,10.1,0,20.2,0,30.3c0,1,0.3,2.2-0.2,2.9
		c-0.4,0.7-1.6,0.8-2.5,1.2c0,0-0.1,0-0.1,0c-0.2,0.3-0.6,0.6-0.6,0.8c-0.1,1.3,0,2.6,0,3.9c0,0.6,0.2,0.8,0.8,1c3,0.7,6,1.5,9,2.3
		c1.6,0.4,3.1,0.8,4.8,1.2c0-1,0-2,0-2.9c0-1.1,0.3-2.3-0.1-3.2c-0.4-0.9-1.6-1.4-2.5-2.1c-0.5-0.4-0.7-0.8-0.7-1.4
		c0-6.1,0-12.2,0-18.2c0-0.3,0-0.6,0-0.8c0.3,0.4,0.4,0.8,0.6,1.2c3.2,9.5,6.4,19,9.7,28.5c0.1,0.3,0.3,0.8,0.6,0.9
		C100.6,142.3,102.9,142.9,105.2,143.6z M136.2,87.4c-8.4,0-16.7,0-25.1,0c0,1.3,0.1,2.5,0,3.7c-0.3,1.9,0.3,3.1,2.2,3.6
		c0.9,0.2,1,0.9,1,1.7c0,13.1,0,26.1,0,39.2c0,0.9,0.3,2-0.2,2.7c-0.4,0.6-1.6,0.8-2.4,1.2c-0.5,0.2-0.7,0.4-0.6,0.9
		c0,1.3,0,2.6,0,3.8c0,0.6,0.2,0.8,0.7,1c4.1,1.5,8.2,3,12.3,4.6c0.4,0.2,0.9,0.3,1.4,0.5c0-0.9-0.1-1.7,0-2.4
		c0.4-2.6-0.4-4.7-2.3-6.5c-0.4-0.3-0.5-1-0.6-1.5c0-7.3,0-14.6,0-21.9c0-0.3,0-0.7,0-1.1c0.9,0,1.8,0.1,2.6,0
		c1.7-0.3,2.9,0.3,3.6,1.9c0.1,0.3,0.5,0.7,0.7,0.7c1.2,0.1,2.3,0,3.5,0c0-4.3,0-8.6,0-12.9c-0.4,0-0.7,0.1-1,0
		c-2-0.4-3.4,0.3-4.2,2.2c-0.1,0.2-0.4,0.5-0.6,0.6c-1.5,0-3,0-4.5,0c0-4.9,0-9.7,0-14.5c2.1,0,4.1,0,6,0c0.2,0,0.5,0.3,0.5,0.6
		c0.5,1.3,0.8,2.6,1.3,3.9c0.1,0.2,0.3,0.6,0.5,0.6c1.7,0,3.4,0,5.1,0C136.2,95.7,136.2,91.6,136.2,87.4z M138.7,142.9
		c0.2,0,0.2,0,0.3,0c8.2-2.2,16.3-4.4,24.5-6.5c0.6-0.2,0.7-0.4,0.7-1c0-4.7,0-9.5,0-14.2c0-0.3-0.1-0.5-0.1-0.8c-2,0-3.8,0-5.8,0
		c-0.3,2.4-0.6,4.7-0.9,7.1c-0.3,2.4-0.3,2.4-2.6,3c-1.3,0.3-2.6,0.7-4,1c0-0.5,0-0.9,0-1.3c0-10.8,0.1-21.5-0.1-32.3
		c0-2,0.4-3.4,2.4-4c0.2-0.1,0.5-0.3,0.5-0.5c0-2,0-3.9,0-5.9c-4.9,0-9.6,0-14.4,0c0,1.2,0.1,2.4,0,3.6c-0.3,1.9,0.3,3.1,2.2,3.7
		c0.7,0.2,0.9,0.7,0.9,1.5c0,12.2,0,24.4,0,36.6c0,0.7-0.1,1.1-0.7,1.5c-0.9,0.6-1.7,1.3-2.5,2c-0.2,0.2-0.4,0.5-0.4,0.7
		C138.7,139,138.7,140.9,138.7,142.9z"/>
	<path class="st1" d="M107.6,75.8c-3-6.2-3.7-18,2.7-25.9c4.8-6,15.8-10.8,21.1-9.1c-0.4,0.2-0.7,0.3-1,0.5c-1.6,1-3.3,2-4.9,2.9
		c-0.3,0.2-0.8,0.4-1,0.2c-1.1-0.6-2-0.1-2.7,0.6c1.8,0.9,3.7,1.9,5.7,2.9c0.3-0.3,0.7-0.7,1.2-1.1c-0.6-0.5-1.2-0.9-2-1.4
		c1.1-0.9,2.2-1.9,3.3-2.8c0.5-0.4,1-0.7,1.5-1.1c0.9-0.6,1.2-0.5,1.6,0.5c1.3,3.4,1.9,6.9,1.8,10.5c-0.2,5.4-1.9,10.4-5.5,14.5
		c-3.7,4.3-8.6,6.8-14,8.2c-2,0.5-4,0.8-6,1.2c-0.7,0.1-0.9-0.1-0.8-0.9c1.3-5.3,3.2-10.3,5.9-15c0-0.1,0.1-0.1,0.3-0.3
		c0.6,0.4,1.3,0.8,2,1.3c0.3-0.5,0.6-0.9,0.8-1.4c-1.1-1.3-3.9-2.6-6.4-3c-0.2,0.5-0.5,0.9-0.7,1.5c0.7,0.2,1.3,0.4,2.1,0.6
		C110,64.7,108.4,70.1,107.6,75.8z M112.5,54.8c2.2,1,4.3,2.1,6.6,3.1c0.2-0.3,0.6-0.8,0.9-1.3c-1.8-1.5-3.9-2.5-6.2-3.1
		c-0.2,0-0.5,0.1-0.7,0.3C112.9,54.1,112.7,54.5,112.5,54.8z M115.1,51.1c2.2,1.1,4.3,2.1,6.5,3.2c0.2-0.3,0.6-0.8,1-1.3
		c-1.6-1.3-3.2-2.2-5.1-2.8C116,49.8,115.9,49.8,115.1,51.1z M118.2,47.9c2.1,1,4.1,2,6.3,3.1c0.3-0.3,0.7-0.7,1.1-1.2
		c-1.4-1.2-3-2.1-4.6-2.6C119.4,46.6,119.2,46.7,118.2,47.9z"/>
	<path class="st1" d="M77,46.7c0.6,1.6,1.1,3,1.5,4.3c0.2,0.6,0.5,0.8,1.1,0.8c1.4,0,2.8,0,4.3,0.2c-1.2,0.9-2.3,1.8-3.5,2.6
		c-0.5,0.4-0.6,0.7-0.4,1.3c0.5,1.4,0.9,2.8,1.4,4.4c-1.4-1-2.6-1.8-3.7-2.6c-0.5-0.4-0.9-0.4-1.4,0c-1.1,0.8-2.3,1.6-3.6,2.3
		c0.5-1.6,1-3.2,1.5-4.9c-1.4-1-2.7-2.1-4.1-3.1c0-0.1,0-0.2,0.1-0.2c1.3,0,2.6-0.1,4,0c0.8,0,1.2-0.2,1.5-1
		C76,49.5,76.5,48.2,77,46.7z"/>
	<path class="st1" d="M102.9,52c-1.2,0.9-2.3,1.8-3.5,2.6c-0.5,0.4-0.6,0.7-0.4,1.3c0.5,1.4,0.9,2.8,1.4,4.4
		c-1.2-0.9-2.3-1.5-3.2-2.3c-0.9-0.7-1.5-0.7-2.3,0c-0.9,0.8-2,1.4-3.1,2c0.3-1.1,0.7-2.2,1-3.2c0.5-1.7,0.5-1.7-0.9-2.8
		c-0.9-0.7-1.8-1.3-2.6-2.2c1,0,1.9,0,2.9,0c2.2,0,2.2,0,2.9-2c0.3-0.9,0.7-1.9,1.1-3c0.5,1.3,0.8,2.4,1.2,3.5
		c0.7,1.9,0.1,1.6,2.3,1.6c1.1,0,2.2,0,3.3,0C102.8,51.9,102.9,52,102.9,52z"/>
	<path class="st1" d="M163.3,74.2c-1.4,1-2.8,2-4.2,2.9c-0.1,0-0.1-0.1-0.2-0.1c0.4-1.3,0.7-2.5,1.2-3.8c0.3-0.8,0.2-1.4-0.6-1.9
		c-1.1-0.7-2.2-1.6-3.2-2.6c1.4,0,2.8,0,4.2,0c0.7,0,1-0.2,1.2-0.8c0.4-1.4,0.9-2.7,1.5-4.3c0.5,1.5,1,2.8,1.4,4.1
		c0.2,0.8,0.6,1.1,1.5,1c1.3-0.1,2.6,0,4,0c0,0.1,0.1,0.1,0.1,0.2c-1.4,1-2.7,2.1-4.1,3.1c0.5,1.6,1,3.3,1.6,5.2
		C166,76.1,164.7,75.2,163.3,74.2z"/>
	<path class="st1" d="M137.4,68.7c1.6,0,3.3,0,5,0c0.6-1.6,1.1-3.2,1.8-5.1c0.6,1.6,1.1,3,1.5,4.4c0.2,0.5,0.4,0.7,1,0.7
		c1.4,0,2.9,0,4.3,0c0,0.1,0.1,0.1,0.1,0.2c-0.9,0.7-1.8,1.4-2.7,2c-1.5,1.1-1.5,1.1-0.9,2.8c0.3,1.1,0.7,2.1,1.1,3.5
		c-1.6-1.1-3-2.1-4.4-3c-1.4,1-2.8,1.9-4.4,3.1c0.5-1.6,0.8-2.9,1.3-4.1c0.3-0.8,0.2-1.2-0.5-1.7c-1.2-0.8-2.2-1.7-3.3-2.5
		C137.3,68.8,137.4,68.8,137.4,68.7z"/>
	<path class="st1" d="M142.4,51.7c0.6-1.7,1.2-3.3,1.8-5.1c0.6,1.8,1.2,3.4,1.8,5.1c1.7,0,3.4,0,5.1,0c0,0.1,0.1,0.1,0.1,0.2
		c-0.7,0.5-1.4,1-2,1.5c-0.7,0.5-1.7,1-2,1.7c-0.2,0.7,0.4,1.7,0.6,2.5c0.2,0.8,0.5,1.6,0.8,2.6c-1.6-1.1-3-2.1-4.4-3.1
		c-1.4,1-2.8,2-4.4,3.1c0.5-1.6,0.8-2.9,1.3-4.1c0.3-0.9,0.1-1.3-0.6-1.8c-1.1-0.8-2.2-1.6-3.5-2.6C139,51.7,140.7,51.7,142.4,51.7z
		"/>
	<path class="st1" d="M170.2,51.9c-1.2,0.9-2.3,1.8-3.5,2.6c-0.5,0.4-0.6,0.7-0.4,1.3c0.5,1.4,0.9,2.8,1.1,4.2
		c-1.2-0.8-2.3-1.6-3.5-2.5c-0.5-0.4-0.8-0.4-1.3,0c-1.1,0.9-2.3,1.6-3.6,2.4c0.4-1.2,0.7-2.5,1.2-3.7c0.4-0.9,0.3-1.5-0.6-2.1
		c-1.1-0.7-2.1-1.6-3.1-2.5c1.1,0,2.2,0,3.3,0c1.8,0,1.8,0,2.4-1.7c0.4-1,0.7-2.1,1.2-3.4c0.6,1.6,1.1,2.9,1.5,4.2
		c0.2,0.8,0.6,1,1.3,0.9c1.4-0.1,2.7,0,4.1,0C170.1,51.8,170.2,51.8,170.2,51.9z"/>
	<path class="st1" d="M91.7,77c0.4-1.3,0.8-2.7,1.2-4c0.3-0.7,0.1-1.1-0.5-1.6c-1.1-0.8-2.2-1.6-3.3-2.7c1.2,0,2.4,0,3.6,0
		c1.8,0,1.3,0.3,2-1.4c0.4-1.1,0.8-2.3,1.4-3.4c0.5,1.4,1,2.7,1.4,4.1c0.2,0.6,0.5,0.8,1.1,0.8c1.4-0.1,2.8,0,4.3,0.2
		c-1.1,0.9-2.3,1.8-3.4,2.6C98.9,72,98.8,72.3,99,73c0.5,1.3,0.9,2.7,1.1,4.2c-1.2-0.8-2.3-1.6-3.5-2.4c-0.5-0.4-0.9-0.4-1.4,0
		c-1.1,0.8-2.3,1.6-3.4,2.4C91.8,77.1,91.7,77.1,91.7,77z"/>
	<path class="st1" d="M81.4,77.4c-1.3-0.9-2.4-1.6-3.4-2.4c-0.7-0.5-1.2-0.6-1.9,0c-1,0.8-2.2,1.5-3.4,2.2c0.5-1.6,1-3.3,1.5-5
		c-1.4-1-2.7-2.1-4.1-3.1c0-0.1,0-0.1,0-0.2c0.7,0,1.5,0,2.2,0c1,0,2.2,0.3,2.8-0.2c0.6-0.4,0.7-1.7,1-2.6c0.3-0.7,0.5-1.4,0.8-2.4
		c0.5,1.5,1,2.7,1.4,3.9c0.3,1,0.8,1.3,1.7,1.2c1.3-0.1,2.5,0,3.8,0.2c-1.1,0.9-2.2,1.7-3.4,2.5c-0.6,0.4-0.8,0.8-0.5,1.5
		C80.6,74.4,80.9,75.8,81.4,77.4z"/>
	<path class="st3" d="M105.2,143.6c-2.4-0.7-4.6-1.4-6.8-2.1c-0.3-0.1-0.5-0.6-0.6-0.9c-3.2-9.5-6.4-19-9.7-28.5
		c-0.1-0.4-0.3-0.8-0.6-1.2c0,0.3,0,0.6,0,0.8c0,6.1,0,12.2,0,18.2c0,0.7,0.2,1.1,0.7,1.4c0.9,0.6,2.1,1.2,2.5,2.1
		c0.4,0.9,0.1,2.1,0.1,3.2c0,0.9,0,1.9,0,2.9c-1.6-0.4-3.2-0.8-4.8-1.2c-3-0.8-6-1.5-9-2.3c-0.6-0.1-0.8-0.4-0.8-1
		c0-1.3,0-2.6,0-3.9c0-0.3,0.4-0.6,0.6-0.8c0,0,0.1,0,0.1,0c0.9-0.4,2.1-0.5,2.5-1.2c0.5-0.7,0.2-1.9,0.2-2.9c0-10.1,0-20.2,0-30.3
		c0-0.7-0.2-1.2-0.9-1.4c-0.9-0.4-2-0.7-2.4-1.3c-0.4-0.7-0.1-1.8-0.1-2.8c0-1,0-2.1,0-3.3c0.4,0,0.7,0,1,0c3,0,6,0,8.9,0
		c0.8,0,1.1,0.2,1.3,0.9c3.1,9.8,6.3,19.5,9.5,29.3c0.1,0.3,0.2,0.6,0.4,0.8c0-0.2,0.1-0.5,0.1-0.7c0-7.1,0-14.3,0-21.4
		c0-0.7-0.2-1.2-0.9-1.5c-1.8-0.6-2.4-1.8-2.2-3.7c0.2-1.1,0-2.3,0-3.5c4.5,0,8.9,0,13.5,0c0,0.2,0.1,0.4,0.1,0.7
		c0,0.8-0.1,1.6,0,2.4c0.3,2.1-0.2,3.7-2.4,4.4c-0.2,0.1-0.5,0.6-0.5,0.9c-0.1,1.3,0,2.7,0,4c0,14.2,0,28.3,0,42.5
		C105.2,142.8,105.2,143.1,105.2,143.6z"/>
	<path class="st3" d="M136.2,87.4c0,4.2,0,8.3,0,12.5c-1.7,0-3.4,0-5.1,0c-0.2,0-0.4-0.4-0.5-0.6c-0.4-1.3-0.8-2.6-1.3-3.9
		c-0.1-0.2-0.4-0.6-0.5-0.6c-2,0-4,0-6,0c0,4.9,0,9.6,0,14.5c1.5,0,3,0,4.5,0c0.2,0,0.5-0.3,0.6-0.6c0.8-1.9,2.2-2.5,4.2-2.2
		c0.3,0.1,0.7,0,1,0c0,4.3,0,8.5,0,12.9c-1.2,0-2.3,0-3.5,0c-0.3,0-0.6-0.4-0.7-0.7c-0.7-1.6-1.9-2.2-3.6-1.9c-0.8,0.1-1.7,0-2.6,0
		c0,0.5,0,0.8,0,1.1c0,7.3,0,14.6,0,21.9c0,0.5,0.2,1.2,0.6,1.5c1.9,1.8,2.7,3.9,2.3,6.5c-0.1,0.7,0,1.5,0,2.4
		c-0.5-0.2-1-0.3-1.4-0.5c-4.1-1.5-8.2-3.1-12.3-4.6c-0.5-0.2-0.7-0.4-0.7-1c0-1.3,0-2.6,0-3.8c0-0.5,0.2-0.7,0.6-0.9
		c0.8-0.3,2-0.5,2.4-1.2c0.4-0.6,0.2-1.8,0.2-2.7c0-13.1,0-26.1,0-39.2c0-0.9-0.1-1.5-1-1.7c-1.9-0.5-2.5-1.7-2.2-3.6
		c0.2-1.2,0-2.4,0-3.7C119.5,87.4,127.8,87.4,136.2,87.4z"/>
	<path class="st3" d="M138.7,142.9c0-2,0-3.9,0-5.8c0-0.2,0.2-0.5,0.4-0.7c0.8-0.7,1.6-1.4,2.5-2c0.6-0.4,0.7-0.9,0.7-1.5
		c0-12.2,0-24.4,0-36.6c0-0.7-0.2-1.3-0.9-1.5c-1.9-0.5-2.5-1.8-2.2-3.7c0.2-1.2,0-2.4,0-3.6c4.8,0,9.5,0,14.4,0c0,2,0,3.9,0,5.9
		c0,0.2-0.3,0.4-0.5,0.5c-2,0.7-2.4,2-2.4,4c0.1,10.8,0.1,21.5,0.1,32.3c0,0.4,0,0.8,0,1.3c1.4-0.4,2.7-0.7,4-1
		c2.3-0.6,2.3-0.6,2.6-3c0.3-2.3,0.6-4.7,0.9-7.1c1.9,0,3.8,0,5.8,0c0,0.3,0.1,0.5,0.1,0.8c0,4.7,0,9.5,0,14.2c0,0.5-0.1,0.8-0.7,1
		c-8.2,2.2-16.3,4.3-24.5,6.5C138.9,142.9,138.9,142.9,138.7,142.9z"/>
	<path d="M112.5,54.8c0.2-0.2,0.4-0.7,0.7-1c0.1-0.2,0.5-0.3,0.7-0.3c2.3,0.5,4.3,1.5,6.2,3.1c-0.4,0.5-0.7,1-0.9,1.3
		C116.8,56.8,114.7,55.8,112.5,54.8z"/>
	<path d="M115.1,51.1c0.8-1.3,0.9-1.4,2.5-0.9c1.8,0.6,3.5,1.5,5.1,2.8c-0.4,0.5-0.8,1-1,1.3C119.4,53.3,117.3,52.2,115.1,51.1z"/>
	<path d="M118.2,47.9c1.1-1.2,1.2-1.3,2.7-0.7c1.7,0.6,3.2,1.4,4.6,2.6c-0.4,0.5-0.8,0.9-1.1,1.2C122.3,50,120.3,48.9,118.2,47.9z"
		/>
</g>
</svg>
